<?xml version="1.0" encoding="UTF-8" standalone="no"?>
<!-- Created with Inkscape (http://www.inkscape.org/) -->

<svg
   xmlns:dc="http://purl.org/dc/elements/1.1/"
   xmlns:cc="http://creativecommons.org/ns#"
   xmlns:rdf="http://www.w3.org/1999/02/22-rdf-syntax-ns#"
   xmlns:svg="http://www.w3.org/2000/svg"
   xmlns="http://www.w3.org/2000/svg"
   xmlns:sodipodi="http://sodipodi.sourceforge.net/DTD/sodipodi-0.dtd"
   xmlns:inkscape="http://www.inkscape.org/namespaces/inkscape"
   width="744.09448819"
   height="1052.3622047"
   id="svg3048"
   version="1.1"
   inkscape:version="0.48.5 r10040"
   sodipodi:docname="logo_name.svg">
  <defs
     id="defs3050" />
  <sodipodi:namedview
     id="base"
     pagecolor="#ffffff"
     bordercolor="#666666"
     borderopacity="1.0"
     inkscape:pageopacity="0.0"
     inkscape:pageshadow="2"
     inkscape:zoom="2.8"
     inkscape:cx="209.02855"
     inkscape:cy="916.2602"
     inkscape:document-units="px"
     inkscape:current-layer="layer1"
     showgrid="false"
     inkscape:window-width="1026"
     inkscape:window-height="602"
     inkscape:window-x="125"
     inkscape:window-y="125"
     inkscape:window-maximized="0" />
  <metadata
     id="metadata3053">
    <rdf:RDF>
      <cc:Work
         rdf:about="">
        <dc:format>image/svg+xml</dc:format>
        <dc:type
           rdf:resource="http://purl.org/dc/dcmitype/StillImage" />
        <dc:title></dc:title>
      </cc:Work>
    </rdf:RDF>
  </metadata>
  <g
     inkscape:label="Layer 1"
     inkscape:groupmode="layer"
     id="layer1">
    <path
       style="fill:#000000"
       d="m 127.37411,173.54557 c 0,0 -0.37281,-0.28326 -0.51563,-0.50439 -0.31373,-0.48576 -0.4198,-0.97695 -0.54427,-1.54166 -0.11958,-0.54254 -0.1467,-1.13155 0.003,-1.66667 0.62175,-2.22846 3.58398,-5.94377 3.58398,-5.94377 l 3.34962,-4.75626 -0.0192,-7.99374 -1.00361,-0.009 0.0421,-0.95312 2.9483,-0.0312 0.0937,-1.79337 -0.0781,-2.15275 -2.96875,-0.023 c 0,0 0.0189,1.91951 -1.96875,1.91454 -1.98768,-0.005 -8.29688,-2.92983 -8.29688,-2.92983 0,0 6.22696,-2.96467 8.1875,-2.99233 1.96055,-0.0277 2.06627,1.95915 2.06627,1.95915 l 3.00377,-0.01 -0.0127,-5.94742 c 0,0 -1.99857,-0.0234 -1.99699,-1.9786 0.002,-1.95519 3.06457,-8.14063 3.06457,-8.14063 0,0 2.95157,6.16885 2.94146,8.14063 -0.0101,1.97177 -2.01962,1.96722 -2.01962,1.96722 l 0.0273,1.99848 2.96295,-0.0259 c 0,0 0.0259,-1.96207 2.07232,-1.94777 2.04638,0.0143 8,2.91421 8,2.91421 0,0 -6.02057,3.08246 -8.0625,3.08607 -2.04192,0.004 -1.98437,-2.05515 -1.98437,-2.05515 l -2.98438,0.0386 0.0469,4.18399 -0.0625,3.77774 3.01081,0.0156 0.0108,1 -1.01924,0.009 0.012,7.97811 3.45899,4.75627 c 0,0 2.96221,3.71532 3.58398,5.94377 0.14719,0.52752 0.0893,1.10224 0.003,1.64301 -0.0704,0.43958 -0.17027,0.89904 -0.41937,1.26801 -0.14173,0.20993 -0.30671,0.5023 -0.56125,0.67969 -0.25455,0.17739 -0.59866,0.2398 -0.59866,0.2398 l -16.85567,0.0385 z m 17.97437,-1.46429 c 0.23561,-0.49026 0.25174,-1.09637 0.13035,-1.62658 -0.51789,-2.26194 -3.51997,-6.00591 -3.51997,-6.00591 0,0 -1.48194,-2.20954 -2.24366,-3.30002 -0.47419,-0.67884 -1.44818,-2.01838 -1.44818,-2.01838 l -0.0518,-7.89877 -0.98929,-0.0238 0.0194,4.92187 0.0194,6 c 0,0 -1.09196,-0.0239 -2,0.0156 l -0.0118,-5.98437 0.004,-5.03125 -1.05179,0.008 0.0107,7.94564 -1.33367,2.04183 c 0,0 -1.51095,2.19457 -2.21755,3.32345 -1.23114,1.96694 -3.10261,3.72328 -3.51996,6.00591 -0.0913,0.49943 0.009,1.05764 0.25535,1.50158 0.17746,0.31978 0.82053,0.72836 0.82053,0.72836 5.48598,0.0501 10.79944,0.0115 16.15143,0.0442 0,0 0.7558,-0.18777 0.97675,-0.64752 z m -8.09072,-2.99181 c -0.002,-0.90734 1.01575,-1.92533 2.0226,-1.90662 0.94607,0.0176 2.00422,0.92344 2.00698,1.92886 0.003,1.01549 -1.03337,2.07016 -2.02261,2.04927 -0.98923,-0.0209 -1.99417,-1.00694 -2.00697,-2.07151 z m -6.0399,0.0715 c 0,-0.55 0.45,-1 1,-1 0.55,0 1,0.45 1,1 0,0.55 -0.45,1 -1,1 -0.55,0 -1,-0.45 -1,-1 z m 4.07069,-2.0164 c -0.94499,-0.0106 -2.04294,-1.01517 -2.05669,-1.93042 0.01,-0.91476 0.96736,-2.02586 2.08086,-2.03621 0.94107,0.0182 1.92626,0.90953 1.9467,1.92997 0.0157,1.15188 -1.02588,2.04722 -1.97087,2.03666 z"
       id="path3019"
       inkscape:connector-curvature="0"
       sodipodi:nodetypes="csssccccccccczczccczczccczczcccccccccsssscccsscscccccccccccssaccssszcszssszscczs"
       inkscape:export-filename="C:\Users\exca\Desktop\ProduktivLineSimul\icons\Logo_h100.png"
       inkscape:export-xdpi="197.15266"
       inkscape:export-ydpi="197.15266" />
    <path
       style="fill:#00b4ff;fill-opacity:1;stroke:none"
       d="m 130.69716,172.72148 -1.45552,-0.0744 -1.05959,-6.5e-4 c -1.05215,-6.5e-4 -1.16623,-1.65111 -0.91388,-2.59303 0.2866,-1.06979 0.7487,-1.88638 2.14379,-3.78841 0.61421,-0.83738 2.78326,-4.15061 2.78326,-4.15061 1.90217,0.0147 3.44333,0.0485 5.09562,0.0185 l 3.06832,-0.0195 c 0,0 -0.24411,-0.3375 0.79389,1.19066 0.41277,0.60767 0.99512,1.433 1.29411,1.83406 0.7317,0.98147 1.49876,2.14189 2.00866,3.03874 0.96345,1.69458 1.23776,2.73199 0.96014,3.63123 -0.0881,0.2855 -0.1367,0.3634 -0.3739,0.59976 -0.14993,0.1494 -0.31921,0.15731 -0.45258,0.24673 l -0.30496,0.0688 c -4.64369,-0.0128 -8.94371,0.0222 -13.58736,-0.002 z m 9.15581,-1.64734 c 0.52923,-0.20729 0.9708,-0.61888 1.23619,-1.15226 0.23005,-0.46234 0.2726,-0.89332 0.12864,-1.30279 -0.2855,-0.81205 -1.15248,-1.44811 -1.97387,-1.44811 -0.901,0 -1.9046,0.89609 -1.99606,1.78222 -0.0536,0.51973 0.19447,1.12151 0.65169,1.58066 0.57717,0.57959 1.32497,0.78642 1.95341,0.54028 z m -7.16536,-1.0214 c 0.72568,-0.37911 0.72263,-1.40492 -0.005,-1.78795 -0.75715,-0.39839 -1.60987,0.25027 -1.45244,1.10485 0.0838,0.45465 0.51503,0.80655 0.98848,0.80655 0.16917,0 0.29769,-0.0338 0.46929,-0.12345 z m 2.91335,-2.92629 c 0.74151,-0.14062 1.36704,-0.71666 1.59569,-1.46943 0.32972,-1.08552 -0.51417,-2.30719 -1.7096,-2.47494 -0.28218,-0.0396 -0.3558,-0.0335 -0.64148,0.0533 -0.74952,0.22766 -1.3806,0.8643 -1.56731,1.58112 -0.0872,0.33473 -0.0827,0.5403 0.0182,0.82727 0.27657,0.78689 1.1776,1.48098 1.97628,1.52238 0.0514,0.003 0.19907,-0.0152 0.32822,-0.0397 z"
       id="path3034"
       inkscape:connector-curvature="0"
       sodipodi:nodetypes="ccssscccssssscccccssssccccsscccscssscc"
       inkscape:export-filename="C:\Users\exca\Desktop\ProduktivLineSimul\icons\Logo_h100.png"
       inkscape:export-xdpi="197.15266"
       inkscape:export-ydpi="197.15266" />
    <text
       xml:space="preserve"
       style="font-size:34.12283707px;font-style:normal;font-weight:normal;line-height:125%;letter-spacing:0px;word-spacing:0px;fill:#000000;fill-opacity:1;stroke:none;font-family:Sans"
       x="144.12755"
       y="168.80109"
       id="text3065"
       sodipodi:linespacing="125%"
       transform="scale(1.0774739,0.92809673)"
       inkscape:export-filename="C:\Users\exca\Desktop\ProduktivLineSimul\icons\Logo_h100.png"
       inkscape:export-xdpi="197.15266"
       inkscape:export-ydpi="197.15266"><tspan
         sodipodi:role="line"
         id="tspan3067"
         x="144.12755"
         y="168.80109"
         style="font-style:normal;font-variant:normal;font-weight:bold;font-stretch:normal;font-family:Segoe UI;-inkscape-font-specification:Segoe UI Bold">Produktiv</tspan></text>
    <text
       xml:space="preserve"
       style="font-size:21.27293396px;font-style:normal;font-weight:normal;line-height:125%;letter-spacing:0px;word-spacing:0px;fill:#000000;fill-opacity:1;stroke:none;font-family:Sans"
       x="136.3831"
       y="218.42105"
       id="text3069"
       sodipodi:linespacing="125%"
       transform="scale(1.2661602,0.78978948)"
       inkscape:export-filename="C:\Users\exca\Desktop\ProduktivLineSimul\icons\Logo_h100.png"
       inkscape:export-xdpi="197.15266"
       inkscape:export-ydpi="197.15266"><tspan
         sodipodi:role="line"
         id="tspan3071"
         x="136.3831"
         y="218.42105"
         style="font-style:normal;font-variant:normal;font-weight:bold;font-stretch:normal;fill:#00b4ff;fill-opacity:1;font-family:Segoe Print;-inkscape-font-specification:Segoe Print Bold">LineSimul</tspan></text>
    <flowRoot
       xml:space="preserve"
       id="flowRoot3882"
       style="fill:black;stroke:none;stroke-opacity:1;stroke-width:1px;stroke-linejoin:miter;stroke-linecap:butt;fill-opacity:1;font-family:Sans;font-style:normal;font-weight:normal;font-size:40px;line-height:125%;letter-spacing:0px;word-spacing:0px"><flowRegion
         id="flowRegion3884"><rect
           id="rect3886"
           width="247.14285"
           height="77.85714"
           x="104.28571"
           y="115.93361" /></flowRegion><flowPara
         id="flowPara3888"></flowPara></flowRoot>  </g>
</svg>
